# xmcd
#
# Track frame offsets: 
#        150
#        37788
#        57405
#        89542
#        115367
#        139338
#        181813
#        212436
#        241268
#
# Disc length: 3562 seconds
#
# Revision: 3
# Processed by: cddbd v1.5.2PL0 Copyright (c) Steve Scherf et al.
# Submitted via: ExactAudioCopy v0.99pb5
#
DISCID=770de809
DTITLE=Jon Lord and The Hoochie Coochie Men - Live At The Basement CD 2
DYEAR=2008
DGENRE=Blues
TTITLE0=The Hoochie Coochie Man
TTITLE1=New Old Lady Blues
TTITLE2=Who's Been Talkin'
TTITLE3=Six Strings Down
TTITLE4=Dust My Broom
TTITLE5=Back at the Chicken Shack
TTITLE6=When a Blindman Cries
TTITLE7=12 Bar Blow Jam
TTITLE8=When a Blindman Cries (single edit)
EXTD=YEAR: 2003
EXTT0=
EXTT1=
EXTT2=
EXTT3=
EXTT4=
EXTT5=
EXTT6=
EXTT7=
EXTT8=
PLAYORDER=
